G04 #@! TF.GenerationSoftware,KiCad,Pcbnew,(5.0.2)-1*
G04 #@! TF.CreationDate,2019-07-09T12:36:21+05:30*
G04 #@! TF.ProjectId,H-B-LED,482d422d-4c45-4442-9e6b-696361645f70,rev?*
G04 #@! TF.SameCoordinates,Original*
G04 #@! TF.FileFunction,Legend,Top*
G04 #@! TF.FilePolarity,Positive*
%FSLAX46Y46*%
G04 Gerber Fmt 4.6, Leading zero omitted, Abs format (unit mm)*
G04 Created by KiCad (PCBNEW (5.0.2)-1) date 07/09/19 12:36:21*
%MOMM*%
%LPD*%
G01*
G04 APERTURE LIST*
%ADD10C,0.150000*%
%ADD11C,0.120000*%
G04 APERTURE END LIST*
D10*
X18609047Y-16472380D02*
X18609047Y-15472380D01*
X18609047Y-15948571D02*
X19180476Y-15948571D01*
X19180476Y-16472380D02*
X19180476Y-15472380D01*
X19656666Y-16091428D02*
X20418571Y-16091428D01*
X21228095Y-15948571D02*
X21370952Y-15996190D01*
X21418571Y-16043809D01*
X21466190Y-16139047D01*
X21466190Y-16281904D01*
X21418571Y-16377142D01*
X21370952Y-16424761D01*
X21275714Y-16472380D01*
X20894761Y-16472380D01*
X20894761Y-15472380D01*
X21228095Y-15472380D01*
X21323333Y-15520000D01*
X21370952Y-15567619D01*
X21418571Y-15662857D01*
X21418571Y-15758095D01*
X21370952Y-15853333D01*
X21323333Y-15900952D01*
X21228095Y-15948571D01*
X20894761Y-15948571D01*
X21894761Y-16091428D02*
X22656666Y-16091428D01*
X23609047Y-16472380D02*
X23132857Y-16472380D01*
X23132857Y-15472380D01*
X23942380Y-15948571D02*
X24275714Y-15948571D01*
X24418571Y-16472380D02*
X23942380Y-16472380D01*
X23942380Y-15472380D01*
X24418571Y-15472380D01*
X24847142Y-16472380D02*
X24847142Y-15472380D01*
X25085238Y-15472380D01*
X25228095Y-15520000D01*
X25323333Y-15615238D01*
X25370952Y-15710476D01*
X25418571Y-15900952D01*
X25418571Y-16043809D01*
X25370952Y-16234285D01*
X25323333Y-16329523D01*
X25228095Y-16424761D01*
X25085238Y-16472380D01*
X24847142Y-16472380D01*
X26830000Y-17089523D02*
X26791904Y-17165714D01*
X26791904Y-17280000D01*
X26830000Y-17394285D01*
X26906190Y-17470476D01*
X26982380Y-17508571D01*
X27134761Y-17546666D01*
X27249047Y-17546666D01*
X27401428Y-17508571D01*
X27477619Y-17470476D01*
X27553809Y-17394285D01*
X27591904Y-17280000D01*
X27591904Y-17203809D01*
X27553809Y-17089523D01*
X27515714Y-17051428D01*
X27249047Y-17051428D01*
X27249047Y-17203809D01*
X27591904Y-16708571D02*
X26791904Y-16708571D01*
X27591904Y-16251428D01*
X26791904Y-16251428D01*
X27591904Y-15870476D02*
X26791904Y-15870476D01*
X26791904Y-15680000D01*
X26830000Y-15565714D01*
X26906190Y-15489523D01*
X26982380Y-15451428D01*
X27134761Y-15413333D01*
X27249047Y-15413333D01*
X27401428Y-15451428D01*
X27477619Y-15489523D01*
X27553809Y-15565714D01*
X27591904Y-15680000D01*
X27591904Y-15870476D01*
X18341904Y-32536666D02*
X19141904Y-32270000D01*
X18341904Y-32003333D01*
X19065714Y-31279523D02*
X19103809Y-31317619D01*
X19141904Y-31431904D01*
X19141904Y-31508095D01*
X19103809Y-31622380D01*
X19027619Y-31698571D01*
X18951428Y-31736666D01*
X18799047Y-31774761D01*
X18684761Y-31774761D01*
X18532380Y-31736666D01*
X18456190Y-31698571D01*
X18380000Y-31622380D01*
X18341904Y-31508095D01*
X18341904Y-31431904D01*
X18380000Y-31317619D01*
X18418095Y-31279523D01*
X19065714Y-30479523D02*
X19103809Y-30517619D01*
X19141904Y-30631904D01*
X19141904Y-30708095D01*
X19103809Y-30822380D01*
X19027619Y-30898571D01*
X18951428Y-30936666D01*
X18799047Y-30974761D01*
X18684761Y-30974761D01*
X18532380Y-30936666D01*
X18456190Y-30898571D01*
X18380000Y-30822380D01*
X18341904Y-30708095D01*
X18341904Y-30631904D01*
X18380000Y-30517619D01*
X18418095Y-30479523D01*
X20561904Y-32182380D02*
X20561904Y-31658571D01*
X20514285Y-31563333D01*
X20419047Y-31515714D01*
X20228571Y-31515714D01*
X20133333Y-31563333D01*
X20561904Y-32134761D02*
X20466666Y-32182380D01*
X20228571Y-32182380D01*
X20133333Y-32134761D01*
X20085714Y-32039523D01*
X20085714Y-31944285D01*
X20133333Y-31849047D01*
X20228571Y-31801428D01*
X20466666Y-31801428D01*
X20561904Y-31753809D01*
X21038095Y-31515714D02*
X21038095Y-32515714D01*
X21038095Y-31563333D02*
X21133333Y-31515714D01*
X21323809Y-31515714D01*
X21419047Y-31563333D01*
X21466666Y-31610952D01*
X21514285Y-31706190D01*
X21514285Y-31991904D01*
X21466666Y-32087142D01*
X21419047Y-32134761D01*
X21323809Y-32182380D01*
X21133333Y-32182380D01*
X21038095Y-32134761D01*
X21942857Y-31515714D02*
X21942857Y-32515714D01*
X21942857Y-31563333D02*
X22038095Y-31515714D01*
X22228571Y-31515714D01*
X22323809Y-31563333D01*
X22371428Y-31610952D01*
X22419047Y-31706190D01*
X22419047Y-31991904D01*
X22371428Y-32087142D01*
X22323809Y-32134761D01*
X22228571Y-32182380D01*
X22038095Y-32182380D01*
X21942857Y-32134761D01*
X22847619Y-32182380D02*
X22847619Y-31515714D01*
X22847619Y-31182380D02*
X22799999Y-31230000D01*
X22847619Y-31277619D01*
X22895238Y-31230000D01*
X22847619Y-31182380D01*
X22847619Y-31277619D01*
X23323809Y-32182380D02*
X23323809Y-31182380D01*
X23419047Y-31801428D02*
X23704761Y-32182380D01*
X23704761Y-31515714D02*
X23323809Y-31896666D01*
X24276190Y-32182380D02*
X24180952Y-32134761D01*
X24133333Y-32087142D01*
X24085714Y-31991904D01*
X24085714Y-31706190D01*
X24133333Y-31610952D01*
X24180952Y-31563333D01*
X24276190Y-31515714D01*
X24419047Y-31515714D01*
X24514285Y-31563333D01*
X24561904Y-31610952D01*
X24609523Y-31706190D01*
X24609523Y-31991904D01*
X24561904Y-32087142D01*
X24514285Y-32134761D01*
X24419047Y-32182380D01*
X24276190Y-32182380D01*
X25038095Y-32087142D02*
X25085714Y-32134761D01*
X25038095Y-32182380D01*
X24990476Y-32134761D01*
X25038095Y-32087142D01*
X25038095Y-32182380D01*
X25657142Y-32182380D02*
X25561904Y-32134761D01*
X25514285Y-32087142D01*
X25466666Y-31991904D01*
X25466666Y-31706190D01*
X25514285Y-31610952D01*
X25561904Y-31563333D01*
X25657142Y-31515714D01*
X25799999Y-31515714D01*
X25895238Y-31563333D01*
X25942857Y-31610952D01*
X25990476Y-31706190D01*
X25990476Y-31991904D01*
X25942857Y-32087142D01*
X25895238Y-32134761D01*
X25799999Y-32182380D01*
X25657142Y-32182380D01*
X26419047Y-32182380D02*
X26419047Y-31515714D01*
X26419047Y-31706190D02*
X26466666Y-31610952D01*
X26514285Y-31563333D01*
X26609523Y-31515714D01*
X26704761Y-31515714D01*
X27466666Y-31515714D02*
X27466666Y-32325238D01*
X27419047Y-32420476D01*
X27371428Y-32468095D01*
X27276190Y-32515714D01*
X27133333Y-32515714D01*
X27038095Y-32468095D01*
X27466666Y-32134761D02*
X27371428Y-32182380D01*
X27180952Y-32182380D01*
X27085714Y-32134761D01*
X27038095Y-32087142D01*
X26990476Y-31991904D01*
X26990476Y-31706190D01*
X27038095Y-31610952D01*
X27085714Y-31563333D01*
X27180952Y-31515714D01*
X27371428Y-31515714D01*
X27466666Y-31563333D01*
D11*
G04 #@! TO.C,JP4*
X15940000Y-21300000D02*
X17340000Y-21300000D01*
X18040000Y-22000000D02*
X18040000Y-22600000D01*
X17340000Y-23300000D02*
X15940000Y-23300000D01*
X15240000Y-22600000D02*
X15240000Y-22000000D01*
X15240000Y-22000000D02*
G75*
G02X15940000Y-21300000I700000J0D01*
G01*
X15940000Y-23300000D02*
G75*
G02X15240000Y-22600000I0J700000D01*
G01*
X18040000Y-22600000D02*
G75*
G02X17340000Y-23300000I-700000J0D01*
G01*
X17340000Y-21300000D02*
G75*
G02X18040000Y-22000000I0J-700000D01*
G01*
G04 #@! TO.C,JP3*
X17340000Y-24630000D02*
G75*
G02X18040000Y-25330000I0J-700000D01*
G01*
X18040000Y-25930000D02*
G75*
G02X17340000Y-26630000I-700000J0D01*
G01*
X15940000Y-26630000D02*
G75*
G02X15240000Y-25930000I0J700000D01*
G01*
X15240000Y-25330000D02*
G75*
G02X15940000Y-24630000I700000J0D01*
G01*
X15240000Y-25930000D02*
X15240000Y-25330000D01*
X17340000Y-26630000D02*
X15940000Y-26630000D01*
X18040000Y-25330000D02*
X18040000Y-25930000D01*
X15940000Y-24630000D02*
X17340000Y-24630000D01*
G04 #@! TO.C,JP2*
X28640000Y-24480000D02*
X30040000Y-24480000D01*
X30740000Y-25180000D02*
X30740000Y-25780000D01*
X30040000Y-26480000D02*
X28640000Y-26480000D01*
X27940000Y-25780000D02*
X27940000Y-25180000D01*
X27940000Y-25180000D02*
G75*
G02X28640000Y-24480000I700000J0D01*
G01*
X28640000Y-26480000D02*
G75*
G02X27940000Y-25780000I0J700000D01*
G01*
X30740000Y-25780000D02*
G75*
G02X30040000Y-26480000I-700000J0D01*
G01*
X30040000Y-24480000D02*
G75*
G02X30740000Y-25180000I0J-700000D01*
G01*
G04 #@! TO.C,JP1*
X28640000Y-23200000D02*
G75*
G02X27940000Y-22500000I0J700000D01*
G01*
X27940000Y-21900000D02*
G75*
G02X28640000Y-21200000I700000J0D01*
G01*
X30040000Y-21200000D02*
G75*
G02X30740000Y-21900000I0J-700000D01*
G01*
X30740000Y-22500000D02*
G75*
G02X30040000Y-23200000I-700000J0D01*
G01*
X30740000Y-21900000D02*
X30740000Y-22500000D01*
X28640000Y-21200000D02*
X30040000Y-21200000D01*
X27940000Y-22500000D02*
X27940000Y-21900000D01*
X30040000Y-23200000D02*
X28640000Y-23200000D01*
D10*
G04 #@! TO.C,D5*
X22830000Y-21100000D02*
X22280000Y-21800000D01*
X22280000Y-21800000D02*
X18680000Y-21800000D01*
X18680000Y-21800000D02*
X18680000Y-18600000D01*
X18680000Y-18600000D02*
X22830000Y-18600000D01*
X22830000Y-21100000D02*
X22830000Y-18600000D01*
G04 #@! TO.C,D4*
X18700000Y-26950000D02*
X18700000Y-29450000D01*
X22850000Y-29450000D02*
X18700000Y-29450000D01*
X22850000Y-26250000D02*
X22850000Y-29450000D01*
X19250000Y-26250000D02*
X22850000Y-26250000D01*
X18700000Y-26950000D02*
X19250000Y-26250000D01*
G04 #@! TO.C,D3*
X23150000Y-26950000D02*
X23700000Y-26250000D01*
X23700000Y-26250000D02*
X27300000Y-26250000D01*
X27300000Y-26250000D02*
X27300000Y-29450000D01*
X27300000Y-29450000D02*
X23150000Y-29450000D01*
X23150000Y-26950000D02*
X23150000Y-29450000D01*
G04 #@! TO.C,D2*
X27320000Y-21110000D02*
X27320000Y-18610000D01*
X23170000Y-18610000D02*
X27320000Y-18610000D01*
X23170000Y-21810000D02*
X23170000Y-18610000D01*
X26770000Y-21810000D02*
X23170000Y-21810000D01*
X27320000Y-21110000D02*
X26770000Y-21810000D01*
G04 #@! TO.C,D1*
X25150000Y-24930000D02*
X24600000Y-25630000D01*
X24600000Y-25630000D02*
X21000000Y-25630000D01*
X21000000Y-25630000D02*
X21000000Y-22430000D01*
X21000000Y-22430000D02*
X25150000Y-22430000D01*
X25150000Y-24930000D02*
X25150000Y-22430000D01*
G04 #@! TO.C,JP4*
X13852380Y-23133333D02*
X14566666Y-23133333D01*
X14709523Y-23180952D01*
X14804761Y-23276190D01*
X14852380Y-23419047D01*
X14852380Y-23514285D01*
X14852380Y-22657142D02*
X13852380Y-22657142D01*
X13852380Y-22276190D01*
X13900000Y-22180952D01*
X13947619Y-22133333D01*
X14042857Y-22085714D01*
X14185714Y-22085714D01*
X14280952Y-22133333D01*
X14328571Y-22180952D01*
X14376190Y-22276190D01*
X14376190Y-22657142D01*
X14185714Y-21228571D02*
X14852380Y-21228571D01*
X13804761Y-21466666D02*
X14519047Y-21704761D01*
X14519047Y-21085714D01*
G04 #@! TO.C,JP3*
X13852380Y-26433333D02*
X14566666Y-26433333D01*
X14709523Y-26480952D01*
X14804761Y-26576190D01*
X14852380Y-26719047D01*
X14852380Y-26814285D01*
X14852380Y-25957142D02*
X13852380Y-25957142D01*
X13852380Y-25576190D01*
X13900000Y-25480952D01*
X13947619Y-25433333D01*
X14042857Y-25385714D01*
X14185714Y-25385714D01*
X14280952Y-25433333D01*
X14328571Y-25480952D01*
X14376190Y-25576190D01*
X14376190Y-25957142D01*
X13852380Y-25052380D02*
X13852380Y-24433333D01*
X14233333Y-24766666D01*
X14233333Y-24623809D01*
X14280952Y-24528571D01*
X14328571Y-24480952D01*
X14423809Y-24433333D01*
X14661904Y-24433333D01*
X14757142Y-24480952D01*
X14804761Y-24528571D01*
X14852380Y-24623809D01*
X14852380Y-24909523D01*
X14804761Y-25004761D01*
X14757142Y-25052380D01*
G04 #@! TO.C,JP2*
X31152380Y-26333333D02*
X31866666Y-26333333D01*
X32009523Y-26380952D01*
X32104761Y-26476190D01*
X32152380Y-26619047D01*
X32152380Y-26714285D01*
X32152380Y-25857142D02*
X31152380Y-25857142D01*
X31152380Y-25476190D01*
X31200000Y-25380952D01*
X31247619Y-25333333D01*
X31342857Y-25285714D01*
X31485714Y-25285714D01*
X31580952Y-25333333D01*
X31628571Y-25380952D01*
X31676190Y-25476190D01*
X31676190Y-25857142D01*
X31247619Y-24904761D02*
X31200000Y-24857142D01*
X31152380Y-24761904D01*
X31152380Y-24523809D01*
X31200000Y-24428571D01*
X31247619Y-24380952D01*
X31342857Y-24333333D01*
X31438095Y-24333333D01*
X31580952Y-24380952D01*
X32152380Y-24952380D01*
X32152380Y-24333333D01*
G04 #@! TO.C,JP1*
X31152380Y-23033333D02*
X31866666Y-23033333D01*
X32009523Y-23080952D01*
X32104761Y-23176190D01*
X32152380Y-23319047D01*
X32152380Y-23414285D01*
X32152380Y-22557142D02*
X31152380Y-22557142D01*
X31152380Y-22176190D01*
X31200000Y-22080952D01*
X31247619Y-22033333D01*
X31342857Y-21985714D01*
X31485714Y-21985714D01*
X31580952Y-22033333D01*
X31628571Y-22080952D01*
X31676190Y-22176190D01*
X31676190Y-22557142D01*
X32152380Y-21033333D02*
X32152380Y-21604761D01*
X32152380Y-21319047D02*
X31152380Y-21319047D01*
X31295238Y-21414285D01*
X31390476Y-21509523D01*
X31438095Y-21604761D01*
G04 #@! TO.C,D5*
X18422380Y-21098095D02*
X17422380Y-21098095D01*
X17422380Y-20860000D01*
X17470000Y-20717142D01*
X17565238Y-20621904D01*
X17660476Y-20574285D01*
X17850952Y-20526666D01*
X17993809Y-20526666D01*
X18184285Y-20574285D01*
X18279523Y-20621904D01*
X18374761Y-20717142D01*
X18422380Y-20860000D01*
X18422380Y-21098095D01*
X17422380Y-19621904D02*
X17422380Y-20098095D01*
X17898571Y-20145714D01*
X17850952Y-20098095D01*
X17803333Y-20002857D01*
X17803333Y-19764761D01*
X17850952Y-19669523D01*
X17898571Y-19621904D01*
X17993809Y-19574285D01*
X18231904Y-19574285D01*
X18327142Y-19621904D01*
X18374761Y-19669523D01*
X18422380Y-19764761D01*
X18422380Y-20002857D01*
X18374761Y-20098095D01*
X18327142Y-20145714D01*
G04 #@! TO.C,D4*
X18402380Y-28928095D02*
X17402380Y-28928095D01*
X17402380Y-28690000D01*
X17450000Y-28547142D01*
X17545238Y-28451904D01*
X17640476Y-28404285D01*
X17830952Y-28356666D01*
X17973809Y-28356666D01*
X18164285Y-28404285D01*
X18259523Y-28451904D01*
X18354761Y-28547142D01*
X18402380Y-28690000D01*
X18402380Y-28928095D01*
X17735714Y-27499523D02*
X18402380Y-27499523D01*
X17354761Y-27737619D02*
X18069047Y-27975714D01*
X18069047Y-27356666D01*
G04 #@! TO.C,D3*
X29212380Y-28648095D02*
X28212380Y-28648095D01*
X28212380Y-28410000D01*
X28260000Y-28267142D01*
X28355238Y-28171904D01*
X28450476Y-28124285D01*
X28640952Y-28076666D01*
X28783809Y-28076666D01*
X28974285Y-28124285D01*
X29069523Y-28171904D01*
X29164761Y-28267142D01*
X29212380Y-28410000D01*
X29212380Y-28648095D01*
X28212380Y-27743333D02*
X28212380Y-27124285D01*
X28593333Y-27457619D01*
X28593333Y-27314761D01*
X28640952Y-27219523D01*
X28688571Y-27171904D01*
X28783809Y-27124285D01*
X29021904Y-27124285D01*
X29117142Y-27171904D01*
X29164761Y-27219523D01*
X29212380Y-27314761D01*
X29212380Y-27600476D01*
X29164761Y-27695714D01*
X29117142Y-27743333D01*
G04 #@! TO.C,D2*
X28562380Y-21048095D02*
X27562380Y-21048095D01*
X27562380Y-20810000D01*
X27610000Y-20667142D01*
X27705238Y-20571904D01*
X27800476Y-20524285D01*
X27990952Y-20476666D01*
X28133809Y-20476666D01*
X28324285Y-20524285D01*
X28419523Y-20571904D01*
X28514761Y-20667142D01*
X28562380Y-20810000D01*
X28562380Y-21048095D01*
X27657619Y-20095714D02*
X27610000Y-20048095D01*
X27562380Y-19952857D01*
X27562380Y-19714761D01*
X27610000Y-19619523D01*
X27657619Y-19571904D01*
X27752857Y-19524285D01*
X27848095Y-19524285D01*
X27990952Y-19571904D01*
X28562380Y-20143333D01*
X28562380Y-19524285D01*
G04 #@! TO.C,D1*
X26542380Y-24768095D02*
X25542380Y-24768095D01*
X25542380Y-24530000D01*
X25590000Y-24387142D01*
X25685238Y-24291904D01*
X25780476Y-24244285D01*
X25970952Y-24196666D01*
X26113809Y-24196666D01*
X26304285Y-24244285D01*
X26399523Y-24291904D01*
X26494761Y-24387142D01*
X26542380Y-24530000D01*
X26542380Y-24768095D01*
X26542380Y-23244285D02*
X26542380Y-23815714D01*
X26542380Y-23530000D02*
X25542380Y-23530000D01*
X25685238Y-23625238D01*
X25780476Y-23720476D01*
X25828095Y-23815714D01*
G04 #@! TD*
M02*
