G04 #@! TF.GenerationSoftware,KiCad,Pcbnew,(5.0.2)-1*
G04 #@! TF.CreationDate,2019-07-09T12:36:21+05:30*
G04 #@! TF.ProjectId,H-B-LED,482d422d-4c45-4442-9e6b-696361645f70,rev?*
G04 #@! TF.SameCoordinates,Original*
G04 #@! TF.FileFunction,Soldermask,Bot*
G04 #@! TF.FilePolarity,Negative*
%FSLAX46Y46*%
G04 Gerber Fmt 4.6, Leading zero omitted, Abs format (unit mm)*
G04 Created by KiCad (PCBNEW (5.0.2)-1) date 07/09/19 12:36:21*
%MOMM*%
%LPD*%
G01*
G04 APERTURE LIST*
%ADD10C,0.100000*%
G04 APERTURE END LIST*
D10*
G36*
X30525256Y-29541298D02*
X30631579Y-29562447D01*
X30932042Y-29686903D01*
X31198852Y-29865180D01*
X31202454Y-29867587D01*
X31432413Y-30097546D01*
X31613098Y-30367960D01*
X31737553Y-30668422D01*
X31801000Y-30987389D01*
X31801000Y-31312611D01*
X31737553Y-31631578D01*
X31613098Y-31932040D01*
X31432413Y-32202454D01*
X31202454Y-32432413D01*
X31202451Y-32432415D01*
X30932042Y-32613097D01*
X30631579Y-32737553D01*
X30525256Y-32758702D01*
X30312611Y-32801000D01*
X29987389Y-32801000D01*
X29774744Y-32758702D01*
X29668421Y-32737553D01*
X29367958Y-32613097D01*
X29097549Y-32432415D01*
X29097546Y-32432413D01*
X28867587Y-32202454D01*
X28686902Y-31932040D01*
X28562447Y-31631578D01*
X28499000Y-31312611D01*
X28499000Y-30987389D01*
X28562447Y-30668422D01*
X28686902Y-30367960D01*
X28867587Y-30097546D01*
X29097546Y-29867587D01*
X29101148Y-29865180D01*
X29367958Y-29686903D01*
X29668421Y-29562447D01*
X29774744Y-29541298D01*
X29987389Y-29499000D01*
X30312611Y-29499000D01*
X30525256Y-29541298D01*
X30525256Y-29541298D01*
G37*
G36*
X16215256Y-15241298D02*
X16321579Y-15262447D01*
X16622042Y-15386903D01*
X16888852Y-15565180D01*
X16892454Y-15567587D01*
X17122413Y-15797546D01*
X17303098Y-16067960D01*
X17427553Y-16368422D01*
X17491000Y-16687389D01*
X17491000Y-17012611D01*
X17427553Y-17331578D01*
X17303098Y-17632040D01*
X17122413Y-17902454D01*
X16892454Y-18132413D01*
X16892451Y-18132415D01*
X16622042Y-18313097D01*
X16321579Y-18437553D01*
X16215256Y-18458702D01*
X16002611Y-18501000D01*
X15677389Y-18501000D01*
X15464744Y-18458702D01*
X15358421Y-18437553D01*
X15057958Y-18313097D01*
X14787549Y-18132415D01*
X14787546Y-18132413D01*
X14557587Y-17902454D01*
X14376902Y-17632040D01*
X14252447Y-17331578D01*
X14189000Y-17012611D01*
X14189000Y-16687389D01*
X14252447Y-16368422D01*
X14376902Y-16067960D01*
X14557587Y-15797546D01*
X14787546Y-15567587D01*
X14791148Y-15565180D01*
X15057958Y-15386903D01*
X15358421Y-15262447D01*
X15464744Y-15241298D01*
X15677389Y-15199000D01*
X16002611Y-15199000D01*
X16215256Y-15241298D01*
X16215256Y-15241298D01*
G37*
M02*
