G04 #@! TF.GenerationSoftware,KiCad,Pcbnew,(5.0.2)-1*
G04 #@! TF.CreationDate,2019-07-09T12:36:21+05:30*
G04 #@! TF.ProjectId,H-B-LED,482d422d-4c45-4442-9e6b-696361645f70,rev?*
G04 #@! TF.SameCoordinates,Original*
G04 #@! TF.FileFunction,Paste,Top*
G04 #@! TF.FilePolarity,Positive*
%FSLAX46Y46*%
G04 Gerber Fmt 4.6, Leading zero omitted, Abs format (unit mm)*
G04 Created by KiCad (PCBNEW (5.0.2)-1) date 07/09/19 12:36:21*
%MOMM*%
%LPD*%
G01*
G04 APERTURE LIST*
%ADD10R,3.200000X3.200000*%
%ADD11R,2.060000X1.800000*%
%ADD12C,0.990000*%
%ADD13C,0.100000*%
%ADD14R,0.300000X0.500000*%
G04 APERTURE END LIST*
D10*
G04 #@! TO.C,H3*
X16150000Y-30820000D03*
G04 #@! TD*
D11*
G04 #@! TO.C,D5*
X21580000Y-20200000D03*
D12*
X19605000Y-20200000D03*
D13*
G36*
X19110000Y-19300000D02*
X20100000Y-19300000D01*
X20100000Y-21100000D01*
X19110000Y-21100000D01*
X19110000Y-19300000D01*
X19110000Y-19300000D01*
G37*
D14*
X18960000Y-20200000D03*
G04 #@! TD*
G04 #@! TO.C,D4*
X22570000Y-27850000D03*
D12*
X21925000Y-27850000D03*
D13*
G36*
X22420000Y-28750000D02*
X21430000Y-28750000D01*
X21430000Y-26950000D01*
X22420000Y-26950000D01*
X22420000Y-28750000D01*
X22420000Y-28750000D01*
G37*
D11*
X19950000Y-27850000D03*
G04 #@! TD*
G04 #@! TO.C,D3*
X24400000Y-27850000D03*
D12*
X26375000Y-27850000D03*
D13*
G36*
X26870000Y-28750000D02*
X25880000Y-28750000D01*
X25880000Y-26950000D01*
X26870000Y-26950000D01*
X26870000Y-28750000D01*
X26870000Y-28750000D01*
G37*
D14*
X27020000Y-27850000D03*
G04 #@! TD*
G04 #@! TO.C,D2*
X23450000Y-20210000D03*
D12*
X24095000Y-20210000D03*
D13*
G36*
X23600000Y-19310000D02*
X24590000Y-19310000D01*
X24590000Y-21110000D01*
X23600000Y-21110000D01*
X23600000Y-19310000D01*
X23600000Y-19310000D01*
G37*
D11*
X26070000Y-20210000D03*
G04 #@! TD*
G04 #@! TO.C,D1*
X23900000Y-24030000D03*
D12*
X21925000Y-24030000D03*
D13*
G36*
X21430000Y-23130000D02*
X22420000Y-23130000D01*
X22420000Y-24930000D01*
X21430000Y-24930000D01*
X21430000Y-23130000D01*
X21430000Y-23130000D01*
G37*
D14*
X21280000Y-24030000D03*
G04 #@! TD*
D10*
G04 #@! TO.C,H3*
X29590000Y-17220000D03*
G04 #@! TD*
M02*
